<svg xmlns="http://www.w3.org/2000/svg" version="1.1" xmlns:xlink="http://www.w3.org/1999/xlink" xmlns:svgjs="http://svgjs.dev/svgjs" width="1000" height="1000"><style>
    #light-icon {
      display: inline;
    }
    #dark-icon {
      display: none;
    }

    @media (prefers-color-scheme: dark) {
      #light-icon {
        display: none;
      }
      #dark-icon {
        display: inline;
      }
    }
  </style><g id="light-icon"><svg xmlns="http://www.w3.org/2000/svg" version="1.1" xmlns:xlink="http://www.w3.org/1999/xlink" xmlns:svgjs="http://svgjs.dev/svgjs" width="1000" height="1000"><g><g transform="matrix(13.88888888888889,0,0,13.88888888888889,0,0)"><svg xmlns="http://www.w3.org/2000/svg" version="1.1" xmlns:xlink="http://www.w3.org/1999/xlink" xmlns:svgjs="http://svgjs.dev/svgjs" width="72" height="72"><svg id="Layer_1" xmlns="http://www.w3.org/2000/svg" version="1.1" viewBox="0 0 72 72"><defs><style>.st0{fill:#fff}</style></defs><circle cx="36" cy="36" r="34" style="fill:#00345b"></circle><path class="st0" d="M18.3 20.7h35.5v4.9H18.3zM51.2 29H20.8c-3.8 0-7 3.1-7 7s3.1 7 7 7v-4.9c-1.1 0-2-.9-2-2s.9-2 2-2h30.4c1.1 0 2 .9 2 2s-.9 2-2 2V43c3.8 0 7-3.1 7-7s-3.1-7-7-7z"></path><path class="st0" d="M36 6C19.5 6 6 19.5 6 36s13.5 30 30 30 30-13.5 30-30S52.5 6 36 6zm11.8 52.7V38.1h-4.9v22.6c-1.4.4-2.9.7-4.4.8V38.1h-4.9v23.4c-1.5-.1-3-.4-4.4-.8V38.1h-4.9v20.6C16.1 54.4 10.5 45.9 10.5 36c0-14.1 11.5-25.6 25.6-25.6S61.7 21.9 61.7 36s-5.6 18.4-13.8 22.7z"></path></svg></svg></g></g></svg></g><g id="dark-icon"><svg xmlns="http://www.w3.org/2000/svg" version="1.1" xmlns:xlink="http://www.w3.org/1999/xlink" xmlns:svgjs="http://svgjs.dev/svgjs" width="1000" height="1000"><g><g transform="matrix(13.88888888888889,0,0,13.88888888888889,0,0)"><svg xmlns="http://www.w3.org/2000/svg" version="1.1" xmlns:xlink="http://www.w3.org/1999/xlink" xmlns:svgjs="http://svgjs.dev/svgjs" width="72" height="72"><svg id="Layer_1" xmlns="http://www.w3.org/2000/svg" version="1.1" viewBox="0 0 72 72"><defs><style>.st1{fill:#00345b}</style></defs><circle cx="36" cy="36" r="34" style="fill:#fff"></circle><path class="st1" d="M18.3 20.7h35.5v4.9H18.3zM51.2 29H20.8c-3.8 0-7 3.1-7 7s3.1 7 7 7v-4.9c-1.1 0-2-.9-2-2s.9-2 2-2h30.4c1.1 0 2 .9 2 2s-.9 2-2 2V43c3.8 0 7-3.1 7-7s-3.1-7-7-7z"></path><path class="st1" d="M36 6C19.5 6 6 19.5 6 36s13.5 30 30 30 30-13.5 30-30S52.5 6 36 6zm11.8 52.7V38.1h-4.9v22.6c-1.4.4-2.9.7-4.4.8V38.1h-4.9v23.4c-1.5-.1-3-.4-4.4-.8V38.1h-4.9v20.6C16.1 54.4 10.5 45.9 10.5 36c0-14.1 11.5-25.6 25.6-25.6S61.7 21.9 61.7 36s-5.6 18.4-13.8 22.7z"></path></svg></svg></g></g></svg></g></svg>